<?xml version="1.0" encoding="utf-8"?>
<!-- Generator: Adobe Illustrator 26.0.1, SVG Export Plug-In . SVG Version: 6.00 Build 0)  -->
<svg version="1.1" id="Слой_1" xmlns="http://www.w3.org/2000/svg" xmlns:xlink="http://www.w3.org/1999/xlink" x="0px" y="0px"
	 viewBox="0 0 1536 754" style="enable-background:new 0 0 1536 754;" xml:space="preserve">
<style type="text/css">
	.st0{fill:#72B84F;}
	.st1{fill:#4D5561;}
	.st2{fill:none;stroke:#FFFFFF;stroke-width:3;stroke-miterlimit:10;}
</style>
<rect x="12.25" y="-67.2" transform="matrix(0.7071 0.7071 -0.7071 0.7071 27.407 -50.5739)" class="st0" width="125" height="150"/>
<rect x="-105.82" y="50.86" transform="matrix(0.7071 0.7071 -0.7071 0.7071 76.3119 67.493)" class="st1" width="125" height="150"/>
<rect x="-200" y="-150" transform="matrix(0.7071 -0.7071 0.7071 0.7071 1.217664e-13 -6.155246e-13)" class="st2" width="400" height="300"/>
<rect x="1398.75" y="671.2" transform="matrix(-0.7071 -0.7071 0.7071 -0.7071 1966.8613 2307.1082)" class="st0" width="125" height="150"/>
<rect x="1516.82" y="553.14" transform="matrix(-0.7071 -0.7071 0.7071 -0.7071 2251.8999 2189.0415)" class="st1" width="125" height="150"/>
<rect x="1336" y="604" transform="matrix(-0.7071 0.7071 -0.7071 -0.7071 3155.2747 201.043)" class="st2" width="400" height="300"/>
<rect x="457.56" y="345" class="st0" width="598.01" height="10"/>
<rect x="768" y="367.5" class="st1" width="396" height="5"/>
<rect x="372" y="331.22" class="st1" width="396" height="5"/>
</svg>
